<svg width="86" height="88" viewBox="0 0 86 88" fill="none" xmlns="http://www.w3.org/2000/svg">
<path d="M7.442 0.663996V9.68799H78.674V0.663996H7.442ZM14.258 26.104V33.592H34.226V26.104H14.258ZM12.146 37.144V44.632H34.322V37.144H12.146ZM51.602 37.144V44.632H74.066V37.144H51.602ZM51.602 26.104V33.592H71.762V26.104H51.602ZM11.858 62.2V70.84H69.362V62.2H11.858ZM8.306 75.64V84.856H70.13V75.64H8.306ZM37.298 4.12V45.688H48.53V4.12H37.298ZM9.65 48.568V57.592H64.562V87.928H75.986V48.568H9.65ZM0.914 13.624V35.608H11.09V22.456H75.026V35.608H85.682V13.624H0.914Z" fill="#FAFCFC"/>
<path d="M7.442 0.663996V-0.336004H6.442V0.663996H7.442ZM7.442 9.68799H6.442V10.688H7.442V9.68799ZM78.674 9.68799V10.688H79.674V9.68799H78.674ZM78.674 0.663996H79.674V-0.336004H78.674V0.663996ZM14.258 26.104V25.104H13.258V26.104H14.258ZM14.258 33.592H13.258V34.592H14.258V33.592ZM34.226 33.592V34.592H35.226V33.592H34.226ZM34.226 26.104H35.226V25.104H34.226V26.104ZM12.146 37.144V36.144H11.146V37.144H12.146ZM12.146 44.632H11.146V45.632H12.146V44.632ZM34.322 44.632V45.632H35.322V44.632H34.322ZM34.322 37.144H35.322V36.144H34.322V37.144ZM51.602 37.144V36.144H50.602V37.144H51.602ZM51.602 44.632H50.602V45.632H51.602V44.632ZM74.066 44.632V45.632H75.066V44.632H74.066ZM74.066 37.144H75.066V36.144H74.066V37.144ZM51.602 26.104V25.104H50.602V26.104H51.602ZM51.602 33.592H50.602V34.592H51.602V33.592ZM71.762 33.592V34.592H72.762V33.592H71.762ZM71.762 26.104H72.762V25.104H71.762V26.104ZM11.858 62.2V61.2H10.858V62.2H11.858ZM11.858 70.84H10.858V71.84H11.858V70.84ZM69.362 70.84V71.84H70.362V70.84H69.362ZM69.362 62.2H70.362V61.2H69.362V62.2ZM8.306 75.64V74.64H7.306V75.64H8.306ZM8.306 84.856H7.306V85.856H8.306V84.856ZM70.13 84.856V85.856H71.13V84.856H70.13ZM70.13 75.64H71.13V74.64H70.13V75.64ZM37.298 4.12V3.12H36.298V4.12H37.298ZM37.298 45.688H36.298V46.688H37.298V45.688ZM48.53 45.688V46.688H49.53V45.688H48.53ZM48.53 4.12H49.53V3.12H48.53V4.12ZM9.65 48.568V47.568H8.65V48.568H9.65ZM9.65 57.592H8.65V58.592H9.65V57.592ZM64.562 57.592H65.562V56.592H64.562V57.592ZM64.562 87.928H63.562V88.928H64.562V87.928ZM75.986 87.928V88.928H76.986V87.928H75.986ZM75.986 48.568H76.986V47.568H75.986V48.568ZM0.914001 13.624V12.624H-0.0859995V13.624H0.914001ZM0.914001 35.608H-0.0859995V36.608H0.914001V35.608ZM11.09 35.608V36.608H12.09V35.608H11.09ZM11.09 22.456V21.456H10.09V22.456H11.09ZM75.026 22.456H76.026V21.456H75.026V22.456ZM75.026 35.608H74.026V36.608H75.026V35.608ZM85.682 35.608V36.608H86.682V35.608H85.682ZM85.682 13.624H86.682V12.624H85.682V13.624ZM6.442 0.663996V9.68799H8.442V0.663996H6.442ZM7.442 10.688H78.674V8.68799H7.442V10.688ZM79.674 9.68799V0.663996H77.674V9.68799H79.674ZM78.674 -0.336004H7.442V1.664H78.674V-0.336004ZM13.258 26.104V33.592H15.258V26.104H13.258ZM14.258 34.592H34.226V32.592H14.258V34.592ZM35.226 33.592V26.104H33.226V33.592H35.226ZM34.226 25.104H14.258V27.104H34.226V25.104ZM11.146 37.144V44.632H13.146V37.144H11.146ZM12.146 45.632H34.322V43.632H12.146V45.632ZM35.322 44.632V37.144H33.322V44.632H35.322ZM34.322 36.144H12.146V38.144H34.322V36.144ZM50.602 37.144V44.632H52.602V37.144H50.602ZM51.602 45.632H74.066V43.632H51.602V45.632ZM75.066 44.632V37.144H73.066V44.632H75.066ZM74.066 36.144H51.602V38.144H74.066V36.144ZM50.602 26.104V33.592H52.602V26.104H50.602ZM51.602 34.592H71.762V32.592H51.602V34.592ZM72.762 33.592V26.104H70.762V33.592H72.762ZM71.762 25.104H51.602V27.104H71.762V25.104ZM10.858 62.2V70.84H12.858V62.2H10.858ZM11.858 71.84H69.362V69.84H11.858V71.84ZM70.362 70.84V62.2H68.362V70.84H70.362ZM69.362 61.2H11.858V63.2H69.362V61.2ZM7.306 75.64V84.856H9.306V75.64H7.306ZM8.306 85.856H70.13V83.856H8.306V85.856ZM71.13 84.856V75.64H69.13V84.856H71.13ZM70.13 74.64H8.306V76.64H70.13V74.64ZM36.298 4.12V45.688H38.298V4.12H36.298ZM37.298 46.688H48.53V44.688H37.298V46.688ZM49.53 45.688V4.12H47.53V45.688H49.53ZM48.53 3.12H37.298V5.12H48.53V3.12ZM8.65 48.568V57.592H10.65V48.568H8.65ZM9.65 58.592H64.562V56.592H9.65V58.592ZM63.562 57.592V87.928H65.562V57.592H63.562ZM64.562 88.928H75.986V86.928H64.562V88.928ZM76.986 87.928V48.568H74.986V87.928H76.986ZM75.986 47.568H9.65V49.568H75.986V47.568ZM-0.0859995 13.624V35.608H1.914V13.624H-0.0859995ZM0.914001 36.608H11.09V34.608H0.914001V36.608ZM12.09 35.608V22.456H10.09V35.608H12.09ZM11.09 23.456H75.026V21.456H11.09V23.456ZM74.026 22.456V35.608H76.026V22.456H74.026ZM75.026 36.608H85.682V34.608H75.026V36.608ZM86.682 35.608V13.624H84.682V35.608H86.682ZM85.682 12.624H0.914001V14.624H85.682V12.624Z" fill="#1F1F1F"/>
</svg>
