<svg width="333" height="115" viewBox="0 0 333 115" fill="none" xmlns="http://www.w3.org/2000/svg">
<path d="M261.357 29.776V35.792H308.845V29.776H261.357ZM265.901 46.736V51.728H279.213V46.736H265.901ZM264.493 54.096V59.088H279.277V54.096H264.493ZM290.797 54.096V59.088H305.773V54.096H290.797ZM290.797 46.736V51.728H304.237V46.736H290.797ZM264.301 70.8V76.56H302.637V70.8H264.301ZM261.933 79.76V85.904H303.149V79.76H261.933ZM281.261 32.08V59.792H288.749V32.08H281.261ZM262.829 61.712V67.728H299.437V87.952H307.053V61.712H262.829ZM257.005 38.416V53.072H263.789V44.304H306.413V53.072H313.517V38.416H257.005Z" fill="#FAFCFC"/>
<path d="M261.357 29.776V28.776H260.357V29.776H261.357ZM261.357 35.792H260.357V36.792H261.357V35.792ZM308.845 35.792V36.792H309.845V35.792H308.845ZM308.845 29.776H309.845V28.776H308.845V29.776ZM265.901 46.736V45.736H264.901V46.736H265.901ZM265.901 51.728H264.901V52.728H265.901V51.728ZM279.213 51.728V52.728H280.213V51.728H279.213ZM279.213 46.736H280.213V45.736H279.213V46.736ZM264.493 54.096V53.096H263.493V54.096H264.493ZM264.493 59.088H263.493V60.088H264.493V59.088ZM279.277 59.088V60.088H280.277V59.088H279.277ZM279.277 54.096H280.277V53.096H279.277V54.096ZM290.797 54.096V53.096H289.797V54.096H290.797ZM290.797 59.088H289.797V60.088H290.797V59.088ZM305.773 59.088V60.088H306.773V59.088H305.773ZM305.773 54.096H306.773V53.096H305.773V54.096ZM290.797 46.736V45.736H289.797V46.736H290.797ZM290.797 51.728H289.797V52.728H290.797V51.728ZM304.237 51.728V52.728H305.237V51.728H304.237ZM304.237 46.736H305.237V45.736H304.237V46.736ZM264.301 70.8V69.8H263.301V70.8H264.301ZM264.301 76.56H263.301V77.56H264.301V76.56ZM302.637 76.56V77.56H303.637V76.56H302.637ZM302.637 70.8H303.637V69.8H302.637V70.8ZM261.933 79.76V78.76H260.933V79.76H261.933ZM261.933 85.904H260.933V86.904H261.933V85.904ZM303.149 85.904V86.904H304.149V85.904H303.149ZM303.149 79.76H304.149V78.76H303.149V79.76ZM281.261 32.08V31.08H280.261V32.08H281.261ZM281.261 59.792H280.261V60.792H281.261V59.792ZM288.749 59.792V60.792H289.749V59.792H288.749ZM288.749 32.08H289.749V31.08H288.749V32.08ZM262.829 61.712V60.712H261.829V61.712H262.829ZM262.829 67.728H261.829V68.728H262.829V67.728ZM299.437 67.728H300.437V66.728H299.437V67.728ZM299.437 87.952H298.437V88.952H299.437V87.952ZM307.053 87.952V88.952H308.053V87.952H307.053ZM307.053 61.712H308.053V60.712H307.053V61.712ZM257.005 38.416V37.416H256.005V38.416H257.005ZM257.005 53.072H256.005V54.072H257.005V53.072ZM263.789 53.072V54.072H264.789V53.072H263.789ZM263.789 44.304V43.304H262.789V44.304H263.789ZM306.413 44.304H307.413V43.304H306.413V44.304ZM306.413 53.072H305.413V54.072H306.413V53.072ZM313.517 53.072V54.072H314.517V53.072H313.517ZM313.517 38.416H314.517V37.416H313.517V38.416ZM260.357 29.776V35.792H262.357V29.776H260.357ZM261.357 36.792H308.845V34.792H261.357V36.792ZM309.845 35.792V29.776H307.845V35.792H309.845ZM308.845 28.776H261.357V30.776H308.845V28.776ZM264.901 46.736V51.728H266.901V46.736H264.901ZM265.901 52.728H279.213V50.728H265.901V52.728ZM280.213 51.728V46.736H278.213V51.728H280.213ZM279.213 45.736H265.901V47.736H279.213V45.736ZM263.493 54.096V59.088H265.493V54.096H263.493ZM264.493 60.088H279.277V58.088H264.493V60.088ZM280.277 59.088V54.096H278.277V59.088H280.277ZM279.277 53.096H264.493V55.096H279.277V53.096ZM289.797 54.096V59.088H291.797V54.096H289.797ZM290.797 60.088H305.773V58.088H290.797V60.088ZM306.773 59.088V54.096H304.773V59.088H306.773ZM305.773 53.096H290.797V55.096H305.773V53.096ZM289.797 46.736V51.728H291.797V46.736H289.797ZM290.797 52.728H304.237V50.728H290.797V52.728ZM305.237 51.728V46.736H303.237V51.728H305.237ZM304.237 45.736H290.797V47.736H304.237V45.736ZM263.301 70.8V76.56H265.301V70.8H263.301ZM264.301 77.56H302.637V75.56H264.301V77.56ZM303.637 76.56V70.8H301.637V76.56H303.637ZM302.637 69.8H264.301V71.8H302.637V69.8ZM260.933 79.76V85.904H262.933V79.76H260.933ZM261.933 86.904H303.149V84.904H261.933V86.904ZM304.149 85.904V79.76H302.149V85.904H304.149ZM303.149 78.76H261.933V80.76H303.149V78.76ZM280.261 32.08V59.792H282.261V32.08H280.261ZM281.261 60.792H288.749V58.792H281.261V60.792ZM289.749 59.792V32.08H287.749V59.792H289.749ZM288.749 31.08H281.261V33.08H288.749V31.08ZM261.829 61.712V67.728H263.829V61.712H261.829ZM262.829 68.728H299.437V66.728H262.829V68.728ZM298.437 67.728V87.952H300.437V67.728H298.437ZM299.437 88.952H307.053V86.952H299.437V88.952ZM308.053 87.952V61.712H306.053V87.952H308.053ZM307.053 60.712H262.829V62.712H307.053V60.712ZM256.005 38.416V53.072H258.005V38.416H256.005ZM257.005 54.072H263.789V52.072H257.005V54.072ZM264.789 53.072V44.304H262.789V53.072H264.789ZM263.789 45.304H306.413V43.304H263.789V45.304ZM305.413 44.304V53.072H307.413V44.304H305.413ZM306.413 54.072H313.517V52.072H306.413V54.072ZM314.517 53.072V38.416H312.517V53.072H314.517ZM313.517 37.416H257.005V39.416H313.517V37.416Z" fill="#1F1F1F"/>
<path d="M52.398 34.9157V79.3958H45.102V48.9318L31.534 79.3958H26.478L12.846 48.9318V79.3958H5.55V34.9157H13.422L29.038 69.7958L44.59 34.9157H52.398ZM68.8995 39.4598C67.5768 39.4598 66.4675 39.0118 65.5715 38.1157C64.6755 37.2198 64.2275 36.1104 64.2275 34.7878C64.2275 33.4651 64.6755 32.3557 65.5715 31.4598C66.4675 30.5637 67.5768 30.1157 68.8995 30.1157C70.1795 30.1157 71.2675 30.5637 72.1635 31.4598C73.0595 32.3557 73.5075 33.4651 73.5075 34.7878C73.5075 36.1104 73.0595 37.2198 72.1635 38.1157C71.2675 39.0118 70.1795 39.4598 68.8995 39.4598ZM72.4835 44.1318V79.3958H65.1875V44.1318H72.4835ZM103.055 43.5558C105.828 43.5558 108.303 44.1318 110.479 45.2837C112.697 46.4357 114.425 48.1424 115.663 50.4038C116.9 52.6651 117.519 55.3958 117.519 58.5958V79.3958H110.287V59.6838C110.287 56.5264 109.497 54.1157 107.919 52.4517C106.34 50.7451 104.185 49.8918 101.455 49.8918C98.7238 49.8918 96.5478 50.7451 94.9265 52.4517C93.3478 54.1157 92.5585 56.5264 92.5585 59.6838V79.3958H85.2625V44.1318H92.5585V48.1637C93.7532 46.7131 95.2678 45.5824 97.1025 44.7718C98.9798 43.9611 100.964 43.5558 103.055 43.5558ZM144.233 43.5558C146.964 43.5558 149.374 44.1104 151.465 45.2197C153.598 46.2864 155.262 47.6304 156.457 49.2518V44.1318H163.817V79.9718C163.817 83.2144 163.134 86.0944 161.769 88.6118C160.404 91.1718 158.42 93.1771 155.817 94.6278C153.257 96.0784 150.185 96.8038 146.601 96.8038C141.822 96.8038 137.854 95.6731 134.697 93.4118C131.54 91.1931 129.748 88.1638 129.321 84.3238H136.553C137.108 86.1584 138.281 87.6304 140.073 88.7398C141.908 89.8918 144.084 90.4678 146.601 90.4678C149.545 90.4678 151.913 89.5718 153.705 87.7798C155.54 85.9878 156.457 83.3851 156.457 79.9718V74.0838C155.22 75.7478 153.534 77.1558 151.401 78.3078C149.31 79.4171 146.921 79.9718 144.233 79.9718C141.161 79.9718 138.345 79.2038 135.785 77.6678C133.268 76.0891 131.262 73.9131 129.769 71.1398C128.318 68.3238 127.593 65.1451 127.593 61.6038C127.593 58.0624 128.318 54.9264 129.769 52.1958C131.262 49.4651 133.268 47.3531 135.785 45.8597C138.345 44.3238 141.161 43.5558 144.233 43.5558ZM156.457 61.7318C156.457 59.2998 155.945 57.1878 154.921 55.3958C153.94 53.6038 152.638 52.2384 151.017 51.2998C149.396 50.3611 147.646 49.8918 145.769 49.8918C143.892 49.8918 142.142 50.3611 140.521 51.2998C138.9 52.1958 137.577 53.5398 136.553 55.3318C135.572 57.0811 135.081 59.1718 135.081 61.6038C135.081 64.0358 135.572 66.1691 136.553 68.0038C137.577 69.8384 138.9 71.2464 140.521 72.2278C142.185 73.1664 143.934 73.6358 145.769 73.6358C147.646 73.6358 149.396 73.1664 151.017 72.2278C152.638 71.2891 153.94 69.9238 154.921 68.1318C155.945 66.2971 156.457 64.1638 156.457 61.7318ZM174.168 61.6038C174.168 58.0624 174.893 54.9264 176.344 52.1958C177.837 49.4651 179.843 47.3531 182.36 45.8597C184.92 44.3238 187.736 43.5558 190.808 43.5558C193.581 43.5558 195.992 44.1104 198.04 45.2197C200.131 46.2864 201.795 47.6304 203.032 49.2518V44.1318H210.392V79.3958H203.032V74.1478C201.795 75.8118 200.109 77.1984 197.976 78.3078C195.843 79.4171 193.411 79.9718 190.68 79.9718C187.651 79.9718 184.877 79.2038 182.36 77.6678C179.843 76.0891 177.837 73.9131 176.344 71.1398C174.893 68.3238 174.168 65.1451 174.168 61.6038ZM203.032 61.7318C203.032 59.2998 202.52 57.1878 201.496 55.3958C200.515 53.6038 199.213 52.2384 197.592 51.2998C195.971 50.3611 194.221 49.8918 192.344 49.8918C190.467 49.8918 188.717 50.3611 187.096 51.2998C185.475 52.1958 184.152 53.5398 183.128 55.3318C182.147 57.0811 181.656 59.1718 181.656 61.6038C181.656 64.0358 182.147 66.1691 183.128 68.0038C184.152 69.8384 185.475 71.2464 187.096 72.2278C188.76 73.1664 190.509 73.6358 192.344 73.6358C194.221 73.6358 195.971 73.1664 197.592 72.2278C199.213 71.2891 200.515 69.9238 201.496 68.1318C202.52 66.2971 203.032 64.1638 203.032 61.7318Z" fill="#F97316"/>
</svg>
